<svg style="position: absolute; width: 0; height: 0;" width="0" height="0" version="1.1" xmlns="http://www.w3.org/2000/svg" xmlns:xlink="http://www.w3.org/1999/xlink" viewBox="0 0 1200 800" enable-background="new 0 0 1200 800" xml:space="preserve">
  <defs>
    <symbol id="MAP" viewBox="0 0 1200 800">
    		<path id="US-AL" fill="rgba(19,39,86,0.3)" stroke="#FFFFFF" stroke-width="0.5" d="M799.124,388.978l8.12,27.47l7.16,21.933l3.6,6.75
    			l2.17,3.84l-2.688,4.36l-0.211,7.34l1.562,4.14v4.07l-0.08,3.778l1.58,2.75l1.29,2.562l-39.931,4.54l-11.091,2.37l-0.148,1.76
    			l5,5.12l-0.61,4.591l-1.14,3.26l-17.79-0.971l-3.521-34.729l0.318-36.57l0.82-29.649l-1.71-4.271l23.396-2.17L799.124,388.978z"/>
    		<path id="US-AR" fill="rgba(19,39,86,0.3)" stroke="#FFFFFF" stroke-width="0.5" d="M722.324,372.418l-0.062,1.89l-1.646,3.32l-3.091,2.42
    			l-0.461,3.8l-2.738,3.17l0.646,6.58l-1.986,2.25l-0.24,1.82l-3.23,1.897l0.131,3.29l-2.141,6.223l-2.1,1.42l-3.15,3.277
    			l-1.74,4.79l-3.699,8.149l-0.147,5.41l2.51,5.85l-0.68,4.521l-16.229,0.02l-20.921,1.562l-18.527,0.448l0.829-12.938h-4.408
    			l-3.69,0.37l-1.028-1.471l0.209-19.899l0.021-22.101l-4.05-23.932l22.26-0.16l20.24-0.64l19.31-0.891l20.91,0.17l1.71,2.7
    			l-1.91,2.57l-1.897,2.58l-0.989,2.32L722.324,372.418z"/>
    		<path id="US-AZ" fill="rgba(19,39,86,0.3)" stroke="#FFFFFF" stroke-width="0.5" d="M369.083,337.317l-18.39,127.431l-38.394-5.86
    			l-40.979-23.7l-26.48-16.646l2.63-3.921l2.5,0.551l3-4.03l-2.68-3.76l0.03-3.479l-0.15-4.13l4.7-4.357l3.58-9.893l6.55-3.43
    			l-2.62-4.99l-1.52-4.68l-0.71-4.21l-0.38-3.221l0.04-2.069l2.03-4.13l0.01-4.54l0.52-4.392l1-4.78l-0.98-3.38l1.81-2.479
    			l3.79,0.78l3.14,2.289l2.28,1.381l1.88-3.15l0.93-0.58l3.47-17.92l28.88,5.19l34.438,5.96L369.083,337.317z"/>
    		<path id="US-CA" fill="rgba(19,39,86,0.3)" stroke="#FFFFFF" stroke-width="0.5" d="M203.614,187.678l-17.771,65.649l24.91,38.101
    			l24.81,36.729l24.25,34.761l-0.04,2.069l0.38,3.221l0.71,4.21l1.52,4.68l2.62,4.99l-6.55,3.43l-3.58,9.891l-4.7,4.356l0.15,4.131
    			l-0.03,3.479l2.68,3.76l-3,4.03l-2.5-0.553l-24.399-2.827l-21.771-3.21l-0.34-8.7l-5.13-13.353l-16.389-18.096l-7.17-2.72
    			l-6.12-9.011l-13.93-5.569l-3.649-4.82l1.14-12.6l-11.03-26.87l-5.61-34.54l2.12-4.851l-5.41-9.47l-7.53-22.22l3.25-18.36
    			l-5.08-14.63l9.37-16.76l5.37-18.71L203.614,187.678z"/>
    		<path id="US-CO" fill="rgba(19,39,86,0.3)" stroke="#FFFFFF" stroke-width="0.5" d="M500.133,282.768l-2.146,34.87l-2.23,33.22l-17.45-1.33
    			l-21.696-1.851l-30.771-3.09l-28.54-3.44l-28.21-3.83l12.84-89.85l17.07,2.359l17.08,2.181l34.229,3.779l17.15,1.61l34.23,2.66
    			l-1.514,21.979L500.133,282.768z"/>
    		<path id="US-CT" fill="rgba(19,39,86,0.3)" stroke="#FFFFFF" stroke-width="0.5" d="M1010.713,186.338l3.4,11.939l-0.131,3.48l-7,3.069
    			l-9.34,3.62l-11.66,8.5l-1.271-2.54l3.08-3.061l-1.777-1.54l-3.33-17.07l12.657-2.83L1010.713,186.338z"/>
    		<path id="US-DC" fill="rgba(19,39,86,0.3)" stroke="#FFFFFF" stroke-width="0.5" d="M939.593,278.777l-0.188-1.319l-1.854-1.603l1.181-1.359
    			l2.689,1.83L939.593,278.777z"/>
    		<path id="US-DE" fill="rgba(19,39,86,0.3)" stroke="#FFFFFF" stroke-width="0.5" d="M962.803,250.277l-2,2.891l1.42,4.149l6.32,11.08
    			l7.33,10.2l-11.58,2.66l-7.641-27.9l0.91-2.04l1.311-1.34L962.803,250.277z"/>
    		<path id="US-FL" fill="rgba(19,39,86,0.3)" stroke="#FFFFFF" stroke-width="0.5" d="M891.124,474.178l5.22,16.08l10.58,17.33l11.851,15.47
    			l1.529,8.852l12.881,21.75l4.473,20.209l-0.812,20.569l-8.06,5.552l-10.75-1.062l-4.94-9.52l-8.738-4.014l-13.988-17.986
    			l-12.521-15.19l-3.46-10.7l1.41-14.38l-6.479-12.06l-14.86-11.801l-12.45-7.107l-21.1,12.35l-5.32-5.84l-19.83-8.17l-22.05,5.101
    			l1.14-3.261l0.61-4.59l-5-5.12l0.149-1.76l11.091-2.37l39.93-4.54l3.72,5.75l19.854-1.5l32.27-1.17l2.062,3.729l2.22-2.42
    			l-1.17-7.858l2.229-1.142l4.131,1.062L891.124,474.178z"/>
    		<path id="US-GA" fill="rgba(19,39,86,0.3)" stroke="#FFFFFF" stroke-width="0.5" d="M846.414,383.038l-1.771,2.159l-2.369,4.681l5.55,3.03
    			l3.43,0.896l4.511,6.61l2.819,3.658l7.34,4.352l1.72,2.601l5.03,2.973l3.04,5.01l6.77,3.58l2.184,4.92l1.53,2.311l-0.394,1.763
    			l3.95,1.88l2.58,3.907l0.67,4.291l1.9,0.539l3.479,0.609l-5.649,17.891l-1.607,13.479l-4.188,0.24l-4.133-1.062l-2.229,1.144
    			l1.17,7.856l-2.223,2.42l-2.061-3.729l-32.27,1.17l-19.854,1.5l-3.72-5.75l-1.29-2.561l-1.58-2.75l0.08-3.779v-4.07l-1.561-4.14
    			l0.211-7.341l2.688-4.359l-2.17-3.84l-3.6-6.75l-7.16-21.932l-8.12-27.472l14.34-1.5l9.87-1.479L846.414,383.038z"/>
    		<path id="US-IA" fill="rgba(19,39,86,0.3)" stroke="#FFFFFF" stroke-width="0.5" d="M684.614,204.688l0.3,1.23l2.35,3.489l-1.39,1.801
    			l0.311,4.77l0.789,1.99l1.271,3.55l5.59,1.87l1.83,3.37l1.08,1.67l2.06,1.04l0.95,2.399l2.76,1.65l1.87,1.85l-0.52,6.15
    			l-2.82,5.33l-1.04,1.7l-3.81,1.54l-5.79,1.449l-1.32,3.98l2.22,1.65l0.92,3.47l-2.026,4.05l-0.96,3.5l-4.25,3.6l-0.144,4.15
    			l-2.46-1.77l-3.479-3.521l-18.87,1.26l-19.893,0.74l-15.5,0.3l-15.527,0.101l-1.15-4.11l0.48-4.06l-0.382-3.91l-1.771-6.55
    			l-1.13-2.71l-1.229-0.74l-0.119-5.25l-1.062-3.76l-3.068-4.29l0.05-1.881l-1.062-3.75l-0.738-2.27l0.028-2.08l-2.7-2.54l1.37-3.72
    			l0.893-3.641l0.408-2.47l-2.107-3.03l0.06-5.55h2.2l18.109,0.021l22.511-0.63l24.18-0.87L684.614,204.688z"/>
    		<path id="US-ID" fill="rgba(19,39,86,0.3)" stroke="#FFFFFF" stroke-width="0.5" d="M360.574,163.487l0.51,0.5l-9.34,55.811l-49.76-8.96
    			l-49.53-10.98l9.6-39.72l2.88-5.97l-0.61-3.2l-2.63-2.2l0.88-3.54l3.42-4.51l4.44-3.59l3.92-6.66l3.44-5.24l2.25-2.54l-0.06-3.57
    			l-2.2-2.409l-2.67-5.141l1.06-3.93l-0.62-3.73l6.88-31.199l6.671-28.62l14.56,3.319l-4.08,23.87l2.66,6.84l-0.9,4.04l2.04,4.2
    			l3.062,2.89l1.81,4.021l2.801,7.84l3.303,4.09l4.606,1.17l-2.72,4.62l-2.72,5.59l0.118,6.03l-2.118,1.07l-1.021,5.77l2.354,2.79
    			l3.646-2.029l2.24-2.83l1.78,1l1.27,3.449l0.41,7.44l2.26,3.35l-0.13,6.051l0.65,1.819l3.14,1.181l1.352,3.63l1.738,6.359
    			l3.54-2.56l5.11,1.79l0.83-2.13l8.81,3.021l3.812-0.08l3.061-4.069l1.63,0.909l1.03,3.421L360.574,163.487z"/>
    		<path id="US-IL" fill="rgba(19,39,86,0.3)" stroke="#FFFFFF" stroke-width="0.5" d="M743.274,223.397v0.062l0.659,5.88l5.647,11.47l0,0l0,0
    			l2.43,26.18l2.423,26.15l-1.409,6.47l1.6,1.521l1.29,3.77l0.148,3.05l-1.358,1.511l-0.94,3.859l-3.239,5.26l-1.961,6.29
    			l-0.17,4.62l0.271,1.67l-1.76,3.32l1.72,2l-3.021,1.92l-3.921,2.24l1.109,4.88l-2.221,2.061l-4.539-1.74l-4.91-0.851l-1.062,2.29
    			l0.962,3.37l-3.479-3.27l-1.91,0.729l-2.72-5.39l0.42-3.439l-1.729-5.38l-1.859-0.54l-5.04-4.648l-2.04,0.05l-3.75-2.96
    			l-2.74-3.24l0.9-4.05l1.438-3.399l0.739-4.239l-3.6-3.431l-3.262,1.67l-2.068-0.83l-0.511-3.771l-1.722-4.22l-1.681-0.94
    			l-4.221-2.82l-3.551-3.67l-3.142-4.51l-1.89-6.7l1.229-5.71l0.143-4.149l4.25-3.601l0.961-3.5l2.028-4.05l-0.921-3.47l-2.221-1.65
    			l1.32-3.979l5.789-1.45l3.811-1.54l1.04-1.7l2.819-5.33l0.521-6.149l-1.869-1.851l-2.762-1.649l-0.949-2.4l-2.061-1.04l-1.08-1.67
    			l17.13-1.1l17.511-1.29l12.921-0.91l-0.012-0.062h0.062v-0.003L743.274,223.397L743.274,223.397z"/>
    		<path id="US-IN" fill="rgba(19,39,86,0.3)" stroke="#FFFFFF" stroke-width="0.5" d="M795.673,236.498l2.46,20.39l2.58,21.93l1.82,15.61
    			l-0.87,1.189l1.99,4.42l-0.55,1.761l-2.961,0.399l-2.521,2.32l-4.271-0.32l0.133,4.37l-2.303,1.94l-1.891,4.14l-2.439,0.99
    			l-3.17,7.14l-3.83-1.54l-1.407-2.64l-2.634,4.82l-1.72,2.72l-4.106-2.26l-3.9,2.56l-1.14,2.33l-5.843-2.91l-3.607,2.83
    			l-4.771-1.33l0.04,2.51l-2.37-0.38l0.172-4.62l1.961-6.29l3.237-5.26l0.94-3.859l1.357-1.511l-0.147-3.05l-1.29-3.77l-1.602-1.521
    			l1.41-6.47l-2.422-26.15l-2.43-26.18l0,0l1.7,1.38l5.75-0.68l4.317-2.94l0,0l18.209-1.84l15.883-1.99L795.673,236.498z"/>
    		<path id="US-KS" fill="rgba(19,39,86,0.3)" stroke="#FFFFFF" stroke-width="0.5" d="M630.643,354.138l-15.959,0.189l-32.737-0.109
    			l-32.75-0.75l-18.184-0.69l-18.159-0.899l-17.101-1.021l2.23-33.22l2.146-34.87h0.03l30.438,1.73l22.659,0.909l40.12,0.811h24.023
    			l4.17,2.99l2.27-0.07l0.54,3.28l-2.42,4.229l1.36,2.14l2.229,4.74l4.67,2.08l0.184,24.29L630.643,354.138z"/>
    		<path id="US-KY" fill="rgba(19,39,86,0.3)" stroke="#FFFFFF" stroke-width="0.5" d="M843.963,304.607l0.65,2.08l0.5,4.67l2.64,3.19l1.37,3.27
    			l3.04,2.521l2.2,2.439l3.54-0.12l-6.141,7.771l-5.213,3.46l-0.17,1.88l-1.56,2.65l-4.553,3.39l-1.311,2.41l-3.529,1.92
    			l-5.051,1.99l-12.18,2.369l-16.12,1.021l-5.19,0.89l-10.5,0.54l-10.656,0.95l-9.812,0.86l-11.33,1.7l-0.68-0.98l-3.61,0.37
    			l0.37,3.55l-26.1,1.87l3.92-2.68l2.75-2.101l-0.62-3.529l0.399-2.312l-0.961-3.37l1.062-2.29l4.91,0.851l4.54,1.739l2.22-2.06
    			l-1.109-4.88l3.92-2.24l3.021-1.92l-1.72-2l1.76-3.32l-0.271-1.67l2.37,0.38l-0.04-2.51l4.771,1.33l3.607-2.83l5.842,2.91
    			l1.141-2.33l3.9-2.56l4.106,2.26l1.722-2.721l2.631-4.819l1.408,2.64l3.83,1.54l3.17-7.14l2.439-0.99l1.891-4.14l2.303-1.94
    			l-0.133-4.37l4.271,0.32l2.521-2.32l2.961-0.399l0.55-1.761l-1.989-4.42l0.87-1.189l6.069-0.229l3.38,1.771l5.341,4.47l3.939,1.09
    			l2.959,1.45l4.108-1.2l3.279,0.86l3.601-1.771l3.28-0.87l1.857,2.939L843.963,304.607z"/>
    		<path id="US-LA" fill="rgba(19,39,86,0.3)" stroke="#FFFFFF" stroke-width="0.5" d="M698.494,442.498l1.439,1.229l-1.569,3.381l3.04,4.529
    			l-0.644,2.86l2.71,3.776l-2.56,2.48l-0.66,4.35l-3.567,3.75l-1.513,4.87l-1.5,5.591l-2.27,2.671l1.066,5.659l17.381-0.2
    			l18.529-1.13l-0.3,3.829l-1.05,3.83l1.448,2.8l2.778,2.473l0.972,3.729l0.528,2.24l-1.63,9.68l7.222,13.29l-27.62,2.71
    			l-17.329-3.779l-11.789-4.197l-15.341-2.4l-17.359-0.188l-1.72-2.989l1.947-3.41l2.909-3.101l-0.06-4.569l-1.49-1.49l1.59-5.51
    			l1.2-2.51l1.68-8.41l-1.829-3.07l-2.397-5.14l-1.8-5.25l-1.17-3.5l-3.25-2.5l-1.712-24.354l18.528-0.447l20.92-1.562
    			L698.494,442.498z"/>
    		<path id="US-MA" fill="rgba(19,39,86,0.3)" stroke="#FFFFFF" stroke-width="0.5" d="M1021.503,163.228l3.14,11.64l8.69,10.04l6.92-1.42
    			l-4.03-7.46l6.301,3.41l0.521,6.61l-10.021,6.739l-8.01,1.811l-1.391-3.21l-3.28-1.79l-2.81-5.4l-6.82,2.141l-15.37,3.569
    			l-12.659,2.83l-0.341-16.069l13.479-3.12l19.591-5.12l1.069-2.63l3-2.44L1021.503,163.228z"/>
    		<path id="US-MD" fill="rgba(19,39,86,0.3)" stroke="#FFFFFF" stroke-width="0.5" d="M956.654,253.357l7.64,27.9l11.58-2.66l1.439,1.771
    			l-4.949,9.13l-3.98,1.271l-1.026,1.83l-11.263-8.58l-4.42-16.45l-1.131,8.42l4.439,19.12l-11.909-4.33l-1.681-2.899l-2.643,1.56
    			l-2.566-0.729l0.948-5.36l2.528-2.71l-0.069-1.86l1.829-2.45l-2.688-1.829l-1.18,1.358l-3.74-1.8l-3.931-0.58l0.771-2.65
    			l-2.63-1.199l-2.69-0.23l-1.93-2.56l-2.74-2.75l-5.67-0.7l-2.979,2.33l-1.561,2.021l-5.26,0.09l-1.86,2.771l-3.26,1.53
    			l-2.49,3.119l-2.29,2.49l-1.93-11.351l15.97-2.99l5.44-1.11l12.16-2.55l14.67-2.989L956.654,253.357z"/>
    		<path id="US-ME" fill="rgba(19,39,86,0.3)" stroke="#FFFFFF" stroke-width="0.5" d="M1022.824,157.537l-1.63,0.7l-1.61-2.84l-3.87-2.41
    			l-0.01-2.33l-13.29-39.35l5.31-5.64l2.58-11.561l-0.35-18.46l6.5-20.01l6.72,4.26l8.841-6.83l8.629,4.2l9.521,29.729l13.99,9.03
    			l3.238,9.15l-12.858,11.771l-13.591,9.851l-13.989,18.47L1022.824,157.537z"/>
    		<path id="US-MI" fill="rgba(19,39,86,0.3)" stroke="#FFFFFF" stroke-width="0.5" d="M786.184,126.027L786.184,126.027l5.319,0.03l0,0
    			l-1.7,2.51l9.03,8.01l-13.66,3.851l-0.54-0.04l-12.74-0.899l-11.866,5.92l-10.61,3.16l-8.01,15.38l-0.434-0.12l-0.01,0.04
    			l-2.39-2.489l0.85-3.771l-3.55,0.12l0.4-3.76l0.81-1.92l-1.7-3.07l-3.89-1.11l-1.2-3.67l-3.12-0.029l-4.489,0.34l-9.471-3.391
    			l-14.14-3.119l-1.54-4.03l-2.521-0.59l-0.02-0.07l-0.95,0.53l-0.15-0.11l0.144,0.1l11.76-6.619l12-8.351l13.09-8.729
    			l-3.947,12.489l9.129,2.131l11.892,7.63l13.42-6.53l15.16-3.76l4.06,5.97l4.91,0.32L786.184,126.027z M831.733,201.378
    			L831.733,201.378l-0.369,0.359l-5.98,13.521l-2.54,8.399l0,0l-4.54,9.49l0,0l-6.33,1.07l-7.68,1.01l-8.62,1.26l-0.229-1.76
    			l-15.88,1.99l-18.211,1.84l0,0l0,0l3.101-3.48l5.66-11.729l-1.15-14.96l-6.97-13.41l-0.19-9.69l3.062-11.569l3.198-8.061
    			l5.818-6.159l2.38,7.43l1.521-11.521l3.25-2.729l1.18-8.891l14.08,2.82l13,7.22l2.75,10.08l-0.03,10.5l-7.71,10.261l1.604,5.569
    			l3.278-0.25l8.729-11.34l6.35,1.38l4.894,12.62l2.21,9.103L831.733,201.378z"/>
    		<path id="US-MN" fill="rgba(19,39,86,0.3)" stroke="#FFFFFF" stroke-width="0.5" d="M704.293,100.178l-0.01,0.01l-15.26,8.59l-10.53,9.78
    			l-10.16,10.17l0.101,3.36l-4.101,1.449l0.69,12.82h-0.5l-3.843,2.68l-3.317,2.32l-2.131,4.28l3.521,4.16l-1.021,5.779l0.211,6.19
    			l-0.32,5.03l4.91,4.21l1.949,0.13l5.407,3.021l1.9,1.46l1.26,2.4l4.312,3.72l5.72,3.09l0.63,1.851l0.33,5.47l0.57,2.54
    			l-21.73,0.57l-24.18,0.87l-22.51,0.63l-18.11-0.021l0.33-21.279l-1.852-21.853l-2.802-1.8l-1.56-3.54l0.89-3.09l3.604-2.53
    			l0.3-3.32l0.03-4.159l-0.974-3.48l-1.3-3.72l-0.729-4.66l-0.15-5.22l-0.521-1.261l-0.58-6.729l-0.029-3.09l-0.28-2.75l-0.729-4.66
    			l-1.829-4.74l-1.74-4.229l-0.21-4.181l-0.144-4.51l0.562-2.94l0.13-2.68l-1.38-3.34l-0.189-2.27l31.433,0.09l-0.054-8.87
    			l5.11-0.181l2.86,12.641l4.81,3.83l10.7,1.18l15.729,3.17l15.189,6.5l12.28-3.649l19.29,4.76L704.293,100.178L704.293,100.178z"/>
    		<path id="US-MO" fill="rgba(19,39,86,0.3)" stroke="#FFFFFF" stroke-width="0.5" d="M684.843,275.938l-1.229,5.71l1.89,6.7l3.141,4.51
    			l3.553,3.67l4.22,2.82l1.68,0.94l1.722,4.22l0.512,3.771l2.068,0.83l3.262-1.67l3.6,3.43l-0.74,4.24l-1.438,3.4l-0.9,4.05
    			l2.74,3.24l3.75,2.96l2.04-0.05l5.04,4.647l1.859,0.54l1.729,5.38l-0.42,3.44l2.72,5.39l1.91-0.729l3.479,3.27l-0.399,2.312
    			l0.62,3.529l-2.75,2.101l-3.92,2.68l-0.32,2.22l-0.891,3.311l-1.039,5.62l-12,0.79l0.988-2.32l1.898-2.58l1.91-2.57l-1.71-2.7
    			l-20.91-0.17l-19.31,0.891l-20.24,0.64l-22.26,0.16l0.037-10.42h-0.091l-0.237-24.24l-0.183-24.29l-4.67-2.08l-2.229-4.739
    			l-1.359-2.141l2.42-4.229l-0.54-3.28l-2.271,0.07l-4.17-2.99l-2.3-4.83l-2.713-2.89l-2.93-3.58l-0.351-1.87l15.527-0.101l15.5-0.3
    			l19.893-0.74l18.871-1.26l3.479,3.521L684.843,275.938z"/>
    		<path id="US-MS" fill="rgba(19,39,86,0.3)" stroke="#FFFFFF" stroke-width="0.5" d="M751.824,393.418l1.71,4.27l-0.82,29.65l-0.32,36.57
    			l3.521,34.729l-11.72,6.11l-11.434,0.47l-0.526-2.24l-0.974-3.729l-2.776-2.473l-1.45-2.801l1.05-3.83l0.3-3.829l-18.528,1.132
    			l-17.381,0.197l-1.067-5.656l2.27-2.674l1.5-5.59l1.513-4.869l3.567-3.75l0.66-4.351l2.562-2.479l-2.711-3.777l0.643-2.86
    			l-3.04-4.529l1.569-3.38l-1.439-1.229l0.68-4.521l-2.51-5.851l0.148-5.41l3.698-8.149l1.74-4.79l3.15-3.277l2.1-1.42l2.142-6.224
    			l-0.132-3.289l3.23-1.897l0.24-1.82l18.356-1.28L751.824,393.418z"/>
    		<path id="US-MT" fill="rgba(19,39,86,0.3)" stroke="#FFFFFF" stroke-width="0.5" d="M477.713,145.098l-2.68,20.78l-26.83-2.881l-28.95-3.289
    			l-24.91-3.65l-31.5-4.76l-1.84,11.439l-0.43,0.75l-1.54-1.529l-1.03-3.421l-1.63-0.909l-3.061,4.069l-3.812,0.08l-8.811-3.02
    			l-0.829,2.13l-5.11-1.79l-3.54,2.56l-1.74-6.359l-1.35-3.63l-3.14-1.181l-0.65-1.819l0.13-6.051l-2.26-3.35l-0.41-7.44
    			l-1.271-3.449l-1.779-1l-2.24,2.83l-3.646,2.029l-2.354-2.79l1.021-5.771l2.117-1.07l-0.117-6.03l2.72-5.59l2.72-4.62l-4.607-1.17
    			l-3.303-4.09l-2.8-7.84l-1.81-4.02l-3.062-2.891l-2.04-4.2l0.9-4.04l-2.66-6.84l4.08-23.87l44.43,9.17l44.722,7.7l44.948,6.23
    			l45.131,4.75l-3.521,42.05L477.713,145.098z"/>
    		<path id="US-NC" fill="rgba(19,39,86,0.3)" stroke="#FFFFFF" stroke-width="0.5" d="M971.083,323.857l7.54,21.57l-7.91,19.03l-16.189,12.409
    			l-13.567,14.44l-6.33,2.61l-24.71-17.24l-20.54,3.37l-0.394-2.62l-3.52-3.311l-1.609,1.79l-0.471-1.949l-8.79,0.369l-17.03,2.46
    			l-9.396,5.32l-1.75,0.933l-23.08,2.96l-0.21-4.82l3.729-1.93l0.948-2.58l2.25-3.08l3.65-1.101l4.18-1.63l3.92-2.53l1.53-2.239
    			l3.229-2.3l-0.33-1.61l4.148-3.72l1.771,1.76l6.091-5.25l3.21-0.04l2.21-4.2l3.54-1.55l-0.7-3.17l0.011-2.891l30.609-4.149
    			l35.859-6.68l18.938-4.11L971.083,323.857z"/>
    		<path id="US-ND" fill="rgba(19,39,86,0.3)" stroke="#FFFFFF" stroke-width="0.5" d="M586.934,80.708l0.189,2.27l1.38,3.34l-0.13,2.68
    			l-0.561,2.94l0.141,4.51l0.21,4.181l1.74,4.229l1.83,4.74l0.729,4.66l0.28,2.75l0.03,3.09l0.58,6.729l0.52,1.261l0.15,5.22
    			l0.729,4.66l1.3,3.72l0.974,3.48l-0.03,4.159l-30.354,0.75l-25.896-0.979l-32.65-1.73l-30.38-2.27l1.66-27.79l3.521-42.05
    			l52.431,3.739L586.934,80.708z"/>
    		<path id="US-NE" fill="rgba(19,39,86,0.3)" stroke="#FFFFFF" stroke-width="0.5" d="M597.934,229.768l0.739,2.27l1.062,3.75l-0.052,1.881
    			l3.068,4.29l1.061,3.76l0.12,5.25l1.229,0.74l1.13,2.71l1.771,6.55l0.383,3.91l-0.48,4.06l1.15,4.11l0.35,1.87l2.932,3.579
    			l2.712,2.891l2.3,4.83h-24.024l-40.12-0.811l-22.658-0.91l-30.438-1.729h-0.03l0.04-0.73l1.514-21.979l-34.23-2.66l3.88-45.18
    			l32.5,2.529l25,1.479l33.45,1.32l4.24,2.989l6.106,1.96l1.461-1.01l3.979,0.16l5.979-0.13l4.289,2.979l4.58,1.939l0.75,1.9
    			l1.44,1.1L597.934,229.768z"/>
    		<path id="US-NH" fill="rgba(19,39,86,0.3)" stroke="#FFFFFF" stroke-width="0.5" d="M1022.824,157.537l-1.32,5.69l-2.021,0.13l-3,2.44
    			l-1.069,2.63l-19.59,5.12l-1.9-1.94l0.521-3.188l-1.143-5.87l0.133-1.51l-0.843-5.341l0.58-4.859l0.79-2.271l0.49-5.72
    			l-0.592-3.64l-0.051-2.28l2.763-1.89l2.827-3.521l-0.129-2.9l-2.028-2.83l0.18-6.489l-0.03-0.011l0.053-5.851l4.971-2.13
    			l13.29,39.35l0.01,2.33l3.87,2.41l1.609,2.84L1022.824,157.537z"/>
    		<path id="US-NJ" fill="rgba(19,39,86,0.3)" stroke="#FFFFFF" stroke-width="0.5" d="M981.843,218.558l-3.12,12.14l4.45-0.069l0.99,16.59
    			l-8.38,19.97l-2.62-5.37l-4.04-0.26l-5.45-4.83l-1.45,0.59l-1.42-4.149l2-2.891l3.021-2.83l0.898-1.66l3.34-3.869l1.608-2.92
    			l-6.67-4.461l-0.84-2.27l-1.99-0.26l-0.75-3.57l1.33-3.16l-1.567-2.67l2.221-2.57l1.75-5.63l1.8-1.46L981.843,218.558z"/>
    		<path id="US-NM" fill="rgba(19,39,86,0.3)" stroke="#FFFFFF" stroke-width="0.5" d="M478.303,349.527l-0.84,11.221l-4.58,59.31l-3.3,42.721
    			l-17.979-1.479l-34.841-3.399l-17.39-1.96l-0.02,1.96l1.75,3.87l-33.33-4.188l-1.514,9.3l-15.566-2.13l18.39-127.431l28.21,3.83
    			l28.54,3.44l30.771,3.09L478.303,349.527z"/>
    		<path id="US-NV" fill="rgba(19,39,86,0.3)" stroke="#FFFFFF" stroke-width="0.5" d="M301.983,210.838l-22.29,111.18l-3.47,17.92l-0.93,0.58
    			l-1.88,3.15l-2.28-1.381l-3.14-2.29l-3.79-0.779l-1.81,2.479l0.98,3.38l-1,4.78l-0.52,4.393l-0.01,4.54l-2.03,4.13l-24.25-34.761
    			l-24.81-36.731l-24.91-38.101l17.771-65.649l48.82,12.24l0.02-0.062L301.983,210.838z"/>
    		<path id="US-NY" fill="rgba(19,39,86,0.3)" stroke="#FFFFFF" stroke-width="0.5" d="M982.343,176.668l0.341,16.069l3.33,17.07l1.779,1.54
    			l-3.08,3.06l1.27,2.54l22.781-9.061l6.029,2.83l-21.62,12.72l-10.67,2.73l-0.659-7.61l-14.891-5.61l-3.061-0.92l-3.189-0.87
    			l-1.83-2.96l-0.13-2.54l-2.44-1.54l-4.396-2.64l-22.473,4.97l-24.17,5.011l-25.961,4.92l-1.1-6.061l11.73-15.95l-0.724-2.08
    			l-0.01-0.06l-3.46-6.03l7.97-4.439l12.96-1.721l13.71-0.93l10.562-9.979l-2.87-8.44l-2.592-3.06l-0.068-0.021l0.01-0.01l0.07,0.03
    			l13.05-18.88l6.17-5.761l23.851-6.021l0.819,4.56l0.091,3.01l2.053,6.461l1.729,3.147l-0.438,4.97l2.931,5.4l-0.21,3.46l0.51,0.76
    			l2.342-0.42L982.343,176.668z"/>
    		<path id="US-OH" fill="rgba(19,39,86,0.3)" stroke="#FFFFFF" stroke-width="0.5" d="M871.864,249.018l-2.17,1.52l1.21,2.721l0.079,5.29
    			l-0.779,6.12l-0.86,5.109l0.104,2.351l-3.86,5.89l-1.83,1.42l-2.236,1.01l-2.184-0.16l-3.271,4.471l-0.067,4.149l-0.2,2.271
    			l-1.42,1.13l-0.607-2.46l-2.45-0.18l-1.722,5.239l0.479,5.011l-1.82,3.46l-4.29,1.229l-3.606-1.67l-1.86-2.938l-3.279,0.869
    			l-3.601,1.771l-3.28-0.86l-4.108,1.2l-2.959-1.45l-3.939-1.09l-5.34-4.47l-3.38-1.771l-6.07,0.23l-1.82-15.61l-2.578-21.93
    			l-2.461-20.39l8.619-1.261l7.683-1.01l6.329-1.08l0,0v0.01l11.068,3.171l8.592-0.101l11.75-4.89l8.938-7.82l8.101-4.47
    			L871.864,249.018z"/>
    		<path id="US-OK" fill="rgba(19,39,86,0.3)" stroke="#FFFFFF" stroke-width="0.5" d="M630.694,364.558l4.05,23.931l-0.021,22.102l-0.21,19.898
    			l-8.236-4.341l-5.342-2.357l-4.302,1.567l-6.67-0.21l-3.95,0.039l-3.25,1.854l-3.18,0.938l-2.78-1.13l-6.35,1.19l-2.84-3.82
    			l-3,3.25l-5.16-1.54l-5.25-3.62l-5.74,2.16l-2.358-5.529l-8.818,0.312l-5.59-1.393l-6.28-1.83l-2.63-4.811l-5.012,1.33
    			l-2.988-1.979l-4.381-2.631l0.961-21.66l0.97-22.208l-18.3-0.91l-18.303-1.1l-18.271-1.31l0.84-11.221l17.45,1.33l17.102,1.021
    			l18.158,0.899l18.184,0.69l32.75,0.75l32.737,0.109l15.959-0.189h0.091L630.694,364.558z"/>
    		<path id="US-OR" fill="rgba(19,39,86,0.3)" stroke="#FFFFFF" stroke-width="0.5" d="M275.114,111.567l2.67,5.141l2.2,2.409l0.06,3.57
    			l-2.25,2.54l-3.44,5.24l-3.92,6.66l-4.44,3.59l-3.42,4.51l-0.88,3.54l2.63,2.2l0.61,3.2l-2.88,5.97l-9.6,39.72l-0.02,0.062
    			l-48.82-12.24l-68.45-20.38l-1.26-13.8l12.32-21.65l8.93-24.11l13.21-31.97l3.229,0.69l4.59,1.56l3.07,3.13l4.03,2.61l1.56,5.04
    			l-0.71,3.79l0.21,3.41l3.3,1.898l3.8,1.062l6.63-0.57l3.689,0.311l5.23,2.521l2.1,1.84l3.45,0.13l4.01-0.8l6.88,2.21l6.39-0.89
    			l3.49-0.99l3.68,2.01l6.14-0.87L275.114,111.567z"/>
    		<path id="US-PA" fill="rgba(19,39,86,0.3)" stroke="#FFFFFF" stroke-width="0.5" d="M966.954,212.947l-1.8,1.46l-1.75,5.63l-2.22,2.57
    			l1.566,2.67l-1.33,3.16l0.75,3.57l1.99,0.26l0.84,2.27l6.67,4.461l-1.607,2.92l-3.34,3.87l-0.899,1.659l-3.021,2.83l-3.93-0.3
    			l-1.312,1.34l-0.908,2.04l-15.051,3.392l-14.67,2.989l-12.16,2.551l-5.439,1.108l-15.97,2.99l-17.96,3.2l-3.54-20.57l-5.11-29.97
    			l0,0l11.42-8.69l0.03-0.04l1.101,6.061l25.961-4.92l24.17-5.011l22.472-4.97l4.397,2.64l2.439,1.54l0.13,2.54l1.83,2.96
    			l3.188,0.87L966.954,212.947z"/>
    		<path id="US-RI" fill="rgba(19,39,86,0.3)" stroke="#FFFFFF" stroke-width="0.5" d="M1025.014,194.598l-11.031,7.16l0.134-3.479l-3.4-11.939
    			l6.82-2.141l2.81,5.4l3.28,1.79L1025.014,194.598z"/>
    		<path id="US-SC" fill="rgba(19,39,86,0.3)" stroke="#FFFFFF" stroke-width="0.5" d="M934.624,393.918l-4.35,17.109l-13.934,16.92
    			l-17.96,14.859l-3.479-0.609l-1.899-0.539l-0.67-4.289l-2.58-3.909l-3.95-1.88l0.393-1.763l-1.529-2.311l-2.182-4.92l-6.771-3.58
    			l-3.04-5.01l-5.028-2.973l-1.722-2.601l-7.34-4.35l-2.819-3.66l-4.511-6.61l-3.43-0.896l-5.552-3.03l2.369-4.681l1.771-2.159
    			l1.75-0.933l9.398-5.32l17.028-2.46l8.79-0.369l0.473,1.949l1.607-1.79l3.521,3.311l0.392,2.62l20.54-3.37L934.624,393.918z"/>
    		<path id="US-SD" fill="rgba(19,39,86,0.3)" stroke="#FFFFFF" stroke-width="0.5" d="M598.083,206.737h-2.2l-0.06,5.55l2.109,3.03l-0.409,2.47
    			l-0.892,3.641l-1.37,3.72l2.7,2.54l-0.028,2.08l-2.818-0.33l-1.44-1.1l-0.75-1.9l-4.58-1.938l-4.29-2.98l-5.979,0.13l-3.98-0.16
    			l-1.46,1.011l-6.106-1.961l-4.24-2.989l-33.45-1.32l-25-1.479l-32.5-2.53l3.7-46.34l2.68-20.78l30.381,2.27l32.649,1.73
    			l25.898,0.979l30.352-0.75l-0.3,3.32l-3.604,2.53l-0.89,3.09l1.562,3.54l2.801,1.8l1.851,21.852L598.083,206.737z"/>
    		<path id="US-TN" fill="rgba(19,39,86,0.3)" stroke="#FFFFFF" stroke-width="0.5" d="M830.383,348.128l27.03-3.141l9.101-1.87l-0.011,2.891
    			l0.7,3.17l-3.54,1.55l-2.21,4.2l-3.21,0.04l-6.09,5.25l-1.771-1.76l-4.147,3.72l0.328,1.609l-3.229,2.301l-1.529,2.239
    			l-3.921,2.53l-4.18,1.63l-3.649,1.101l-2.25,3.08l-0.949,2.579l-3.729,1.931l0.21,4.82l-9.87,1.479l-14.34,1.5l-23.898,2.271
    			l-23.398,2.17l-20.48,1.147l-18.356,1.28l1.987-2.25l-0.647-6.58l2.739-3.17l0.461-3.8l3.09-2.42l1.648-3.32l0.062-1.89l1.04-5.62
    			l0.89-3.311l0.32-2.22l26.1-1.87l-0.368-3.55l3.608-0.37l0.681,0.98l11.329-1.7l9.812-0.86l10.659-0.95l10.5-0.54l5.188-0.89
    			l16.12-1.021L830.383,348.128z"/>
    		<path id="US-TX" fill="rgba(19,39,86,0.3)" stroke="#FFFFFF" stroke-width="0.5" d="M634.513,430.488l1.03,1.472l3.69-0.37h4.409
    			l-0.83,12.938l1.711,24.353l3.25,2.5l1.17,3.5l1.8,5.25l2.398,5.141l1.828,3.069l-1.68,8.41l-1.2,2.51l-1.59,5.511l1.49,1.489
    			l0.06,4.57l-2.909,3.1l-1.947,3.41l1.72,2.99l-17.021,5.14l-18.198,17.2l-20.211,9.897l-11.26,10.891l-4.869,10.311l-0.438,15.939
    			l0.87,11.13l3.87,7.95l-8.2,0.566l-14.78-5.407l-16.09-7.659l-5.45-11.07l-3.93-16.33l-11.54-13.64l-6.393-13.801l-9.289-16.238
    			l-13.58-9.95l-16.353-0.65l-13.989,17.144l-16.107-8.25l-9.721-7.841l-3.762-13.022l-5.39-12.54l-10.63-11.21l-9.19-8.26
    			l-6.159-8.86l-1.75-3.869l0.021-1.961l17.39,1.961l34.843,3.399l17.979,1.479l3.3-42.721l4.58-59.31l18.271,1.31l18.3,1.1
    			l18.3,0.91l-0.971,22.208l-0.959,21.661l4.38,2.629l2.989,1.98l5.011-1.33l2.63,4.811l6.279,1.83l5.591,1.393l8.819-0.312
    			l2.357,5.53l5.74-2.16l5.25,3.62l5.16,1.54l3-3.25l2.84,3.82l6.35-1.19l2.78,1.131l3.18-0.938l3.25-1.853l3.95-0.041l6.67,0.211
    			l4.303-1.567l5.34,2.356L634.513,430.488z"/>
    		<path id="US-UT" fill="rgba(19,39,86,0.3)" stroke="#FFFFFF" stroke-width="0.5" d="M381.923,247.468l-12.84,89.85l-26.07-4.149l-34.438-5.96
    			l-28.88-5.19l22.29-111.18l49.76,8.96l-3.72,21.79L381.923,247.468z"/>
    		<path id="US-VA" fill="rgba(19,39,86,0.3)" stroke="#FFFFFF" stroke-width="0.5" d="M925.333,269.397l2.681,0.24l2.643,1.189l-0.78,2.65
    			l3.933,0.58l3.75,1.8l1.84,1.603l0.188,1.319l0.07,1.86l-2.521,2.71l-0.949,5.36l2.568,0.72l2.641-1.561l1.683,2.91l13.729,10.021
    			l5.739,9.84l0.351,0.6l8.201,12.61l-19.16,4.32l-18.932,4.108l-35.869,6.68l-30.607,4.16l-9.102,1.87l-27.042,3.141l5.062-2
    			l3.526-1.921l1.304-2.42l4.55-3.38l1.568-2.649l0.17-1.88l5.212-3.46l6.13-7.78l1.39,3.68l2.33,1.71l3.013,1.37l5.211-3.61
    			l2.407,1.221l6.359-2.98l0.05-2.07l2.15,0.45l1.93-2.01l2.54-0.11l2.53-2.22l0.027-2.11l-0.771-2.53l1.72-4.29l2.9-3.521
    			l0.278-3.449l2.302-4.511l0.8-5.16l2.64,1.301l2.9,1.109l2.358-1.33l0.461-2.189l1.197-3.09l1.342-3.53l1.438,0.69l2.03-3.37
    			l2.84-3.57l1.72-2.63l0.2-6.189l10.03,4.261L925.333,269.397z M964.684,308.888l1.812,0.521l5.88-19.91l-3.99,1.271l-1.026,1.82
    			L964.684,308.888z"/>
    		<path id="US-VT" fill="rgba(19,39,86,0.3)" stroke="#FFFFFF" stroke-width="0.5" d="M995.824,173.548l-13.48,3.12l-3.96-18.351l-2.34,0.42
    			l-0.51-0.76l0.21-3.46l-2.931-5.4l0.438-4.97L971.522,141l-2.053-6.461l-0.09-3.01l-0.818-4.561l28.83-7.68l0.028,0.01l-0.18,6.49
    			l2.028,2.829l0.131,2.9l-2.83,3.521l-2.762,1.89l0.051,2.28l0.592,3.64l-0.49,5.72l-0.79,2.271l-0.58,4.859l0.842,5.341
    			l-0.131,1.51l1.142,5.87l-0.521,3.188L995.824,173.548z"/>
    		<path id="US-WA" fill="rgba(19,39,86,0.3)" stroke="#FFFFFF" stroke-width="0.5" d="M289.104,44.088l-6.67,28.62l-6.883,31.199l0.62,3.729
    			l-1.06,3.93l-31.98-7.71l-6.14,0.87l-3.68-2.01l-3.49,0.99l-6.39,0.89l-6.88-2.21l-4.01,0.8l-3.45-0.13l-2.1-1.84l-5.23-2.521
    			l-3.688-0.311l-6.63,0.57l-3.8-1.062l-3.3-1.9l-0.21-3.409l0.71-3.79l-1.56-5.04l-4.03-2.61l-3.07-3.13l-4.59-1.56l-3.229-0.69
    			l1.7-19.45l4.33-21.82l19.27,10.45l1.35,19.221l5.44-4.7l3.03-18.771l-1.42-20.29l43.32,12.58L289.104,44.088z"/>
    		<path id="US-WI" fill="rgba(19,39,86,0.3)" stroke="#FFFFFF" stroke-width="0.5" d="M693.893,133.737l0.15,0.11l0.94-0.54l0.02,0.07l2.53,0.6
    			l1.54,4.03l14.13,3.109l9.48,3.391l4.479-0.33l3.12,0.03l1.2,3.67l3.896,1.109l1.7,3.07l-0.81,1.92l-0.4,3.76l3.55-0.12
    			l-0.85,3.771l2.39,2.49l0.011-0.04l0.433,0.12l-0.131,0.229l-5.591,8.771l2.438,2.489l10.479-15.75l2.408-0.319l-6.688,18.29
    			l-2.221,16.149l-1.973,13.11l3.08,10.91l0.062,5.56h-0.062l0.011,0.062l-12.921,0.909l-17.51,1.29l-17.13,1.101l-1.83-3.37
    			l-5.59-1.87l-1.271-3.55l-0.789-1.99l-0.305-4.771l1.39-1.801l-2.35-3.489l-0.3-1.23l-0.57-2.54l-0.33-5.47l-0.63-1.851
    			l-5.72-3.09l-4.312-3.72l-1.26-2.4l-1.898-1.46l-5.409-3.021l-1.949-0.13l-4.91-4.21l0.32-5.03l-0.211-6.19l1.021-5.779
    			l-3.521-4.16l2.131-4.28l3.319-2.32l3.841-2.68h0.5l-0.69-12.82l4.101-1.449l0,0l15.513-5.551L693.893,133.737z"/>
    		<path id="US-WV" fill="rgba(19,39,86,0.3)" stroke="#FFFFFF" stroke-width="0.5" d="M893.364,266.388l1.93,11.351l2.29-2.489l2.49-3.12
    			l3.26-1.53l1.86-2.771l5.26-0.09l1.561-2.021l2.979-2.33l5.67,0.7l2.739,2.75l1.931,2.56l-1.09,4.57l-10.03-4.26l-0.199,6.188
    			l-1.721,2.63l-2.84,3.57l-2.03,3.37l-1.44-0.69l-1.35,3.521l-1.199,3.1l-0.461,2.18l-2.35,1.33l-2.91-1.109l-2.64-1.3l-0.8,5.159
    			l-2.304,4.511l-0.276,3.449l-2.894,3.521l-1.728,4.292l0.75,2.57l-0.03,2.107l-2.521,2.22l-2.541,0.11l-1.932,2.01l-2.148-0.46
    			l-0.049,2.07l-6.359,2.979l-2.41-1.229l-5.21,3.61l-3-1.37l-2.341-1.71l-1.381-3.681l-3.539,0.12l-2.199-2.439l-3.04-2.521
    			l-1.37-3.27l-2.641-3.19l-0.5-4.67l-0.649-2.08l4.29-1.229l1.82-3.46l-0.48-5.011l1.72-5.239l2.451,0.18l0.609,2.46l1.42-1.13
    			l0.2-2.271l0.068-4.149l3.271-4.471l2.181,0.16l2.239-1.01l1.83-1.42l3.859-5.89l-0.103-2.351l0.86-5.109l0.776-6.12l-0.078-5.29
    			l-1.211-2.721l2.17-1.52l3.541,20.57L893.364,266.388z"/>
    		<path id="US-WY" fill="rgba(19,39,86,0.3)" stroke="#FFFFFF" stroke-width="0.5" d="M475.034,165.878l-3.7,46.34l-3.88,45.18l-17.15-1.61
    			l-34.229-3.779l-17.08-2.181l-17.07-2.359l-33.896-5.88l3.72-21.79l9.34-55.811l-0.51-0.5l0.43-0.75l1.84-11.439l31.5,4.76
    			l24.91,3.65l28.95,3.29L475.034,165.878z"/>
    </symbol>
    <!-- <symbol id="SUS" viewBox="0 0 1200 800">
    	<path fill="none" stroke="#132756" stroke-miterlimit="10" d="M208.916,397.54"/>
    	<path fill="none" stroke="#132756" stroke-miterlimit="10" d="M887.157,486.632c0,0-4.632,3.989-11.481,1.288
    		c-6.848-2.701-11.556,1.392-30.217-2.75c-6.796-1.508-9.016,13.643-17.182,13.066c-8.167-0.574-8.117-6.627-15.209-10.335
    		c-7.093-3.709-14.918-1.803-20.977-2.362c-6.059-0.561-16.951-4.597-23.812-3.232c-6.86,1.363-8.797,9.482-11.298,9.588
    		c-2.5,0.106-21.406,1.944-29.069,6.672c-7.663,4.728-11.791,11.941-16.611,12.804c-4.817,0.862-12.835-6.339-16.805-8.209
    		c-3.973-1.87-11.569-4.415-16.994-8.656c-5.425-4.239-27.627-27.776-38.918-32.556c-11.29-4.779-42.165-7.399-51.15-14.057
    		c-8.983-6.66-32.667-38.631-39.806-43.302c-7.14-4.67-13.668-7.595-19.808-9.346c-6.139-1.752-33.926-20.474-38.167-25.948
    		c-4.241-5.474-7.652-16.88-11.125-17.074c-3.471-0.192-18.038,15.476-28.003,14.551c-9.966-0.928-20.334-6.674-23.529-3.327
    		c-3.194,3.349-9.664,39.837-14.191,37.374c-4.527-2.467-8.12-26.048-12.883-32.749c-4.761-6.699-16.19-25.764-26.062-29.749
    		c-9.873-3.986-24.094-2.773-31.101-0.568c0,0-13.653,3.134-15.977-1.389c-2.256-4.392,0.085-16.421-2.616-15.181
    		c-6.11,2.799-9.682,13.167-13.973,13.747c-4.292,0.58-11.853-7.349-13.319-14.885c-1.466-7.536-6.1-24.051-11.074-24.05
    		c-4.975,0.002-22.119,4.656-19.353,8.007c2.767,3.349,7.917,13.239-0.831,15.334c-11.877,2.845-28.265-16.905-36.081-14.151
    		c-7.813,2.753-4.984,19.086-12.112,15.345c-7.128-3.743-9.978,0.956-13.824-0.485c-3.847-1.441-3.256,6.225-8.42,5.468
    		c-5.164-0.758-12.4-4.467-12.4-4.467s8.224-13.513,4.734-18.1c-3.677-4.834-20.711-3.435-20.711-3.435s0.365-9.9-4.14-12.621
    		c-4.506-2.719-12.885-11.607-21.227-11.8"/>
    </symbol>
    <symbol id="SC2SC" viewBox="0 0 1200 800">
    	<path fill="none" stroke="#132756" stroke-miterlimit="10" d="M921.519,407.903c0,0-3.985-4.576-12.049-4.859
    		c-8.064-0.282-58.767,9.284-65.499,9.431c-6.731,0.147-22.879-0.037-35.559,5.287c-12.681,5.321-21.804,13.27-27.543,12.492
    		c-5.74-0.778-16.211-8.269-28.593-11.587c-14.908-3.997-45.401-1.303-63.743-9.535c-7.093-3.179-5.408-10.475-12.541-13.324
    		c-7.7-3.078-50.569,3.708-57.841,4.197c-7.271,0.489-30.885-12.112-43.681-15.05c-12.797-2.942-62.417,2.487-75.907-2.662
    		c-13.489-5.151-37.707-29.966-41.648-38.178c-3.944-8.212-6.831-30.304-8.968-35.051c-2.135-4.748-35.819-7.475-44.968-11.249
    		c-9.148-3.776-5.729-6.545-9.489-8.984c-3.757-2.438-39.952-17.549-44.36-17.896c-4.408-0.344-6.366,0.74-8.782-1.651
    		c-2.416-2.392-2.796-18.94-6.66-23.882c-3.864-4.94-26.13-27.83-31.312-33.585c-5.183-5.755-12.575-25.045-15.555-27.841
    		c-2.979-2.798-41.469-1.648-52.509,0.656c-11.038,2.306-48.275,17.339-53.534,24.651c-5.257,7.314-2.334,6.294-7.109,10.904
    		c-4.776,4.606-17.351,12.461-19.958,21.021c-2.607,8.56,4.848,42.682-0.093,52.012c-4.94,9.327-7.476,11.221-5.614,17.987"/>
    </symbol>
    <symbol id="NC2SD" viewBox="0 0 1200 800">
    	<path fill="none" stroke="#132756" stroke-miterlimit="10" d="M208.916,397.54c0,0,13.353,2.229,28.72,4.439
    		c15.368,2.211,22.675,4.548,31.104,1.09c8.429-3.457,8.874-6.367,16.49-15.253c7.615-8.89,24.396-29.494,32.406-37.36
    		c8.012-7.866,18.51-16.949,27.619-18.712c9.108-1.763,11.698,0.838,18.391-1.13c6.691-1.969,21.05-17.005,38.024-23.417
    		c16.97-6.41,59.014-0.042,73.728,2.585c14.712,2.631,42.401,13.216,52.942,19.735c10.54,6.52,33.354,35.767,41,37
    		c7.648,1.231,13.907-2.379,18.462-5.696c4.553-3.319,23.373-9.598,27.548-7.109s18.701,9.441,28.269,10.769
    		c9.569,1.326,18.417,1.478,23.909,3.671c5.493,2.192,31.693,11.569,42.656,11.378c10.965-0.193,19.496-2.2,25.291-2.957
    		c5.793-0.757,64.46-7.157,78.713-8.003c14.254-0.849,34.213-5.334,44.253-6.523c10.039-1.188,61.404-2.271,67.995-3.77
    		c6.589-1.5,39.933-14.938,39.933-14.938"/>
    </symbol>
    <symbol id="CUS" viewBox="0 0 1200 800">
    	<path fill="none" stroke="#132756"  stroke-miterlimit="10" d="M962.636,306.93c0,0-26.815,8.427-33.179,8.972
    		c-6.363,0.544-27.303,4.477-33.241,4.995c-10.779,0.943-30.501-1.71-35.396-4.739c-4.895-3.027-14.025-11.987-21.439-13.549
    		c-7.416-1.563-10.518-1.384-13.208-1.479c-2.691-0.095-28.92-8.535-36.595-8.975c-21.876-1.25-65.789,12.918-82.929,18.596
    		c-15.539,5.148-82.593-1.713-92.439-0.521c-9.846,1.191-29.338,3.387-35.594,0.865c-6.254-2.522-11.275-7.508-15.428-9.574
    		c-4.155-2.068-17.317-5.221-20.942-5.925c-3.624-0.705-26.376-10.753-33.871-10.331c-7.495,0.422-8.708,2.386-12.748,2.245
    		c-6.715-0.235-18.817-11.524-22.205-13.565c-3.39-2.042-41.723,0.267-52.758-3.182c-6.806-2.125-46.572-9.704-51.977-14.507
    		c-5.405-4.803-11.508-17.07-10.926-22.748c0.582-5.68,10.028-28.225,6.997-35.06c-3.032-6.835-4.592-11.696-8.423-12.024
    		c-3.833-0.323-14.68,2.18-18.089,0.715c-3.409-1.468-10.438-9.401-13.526-14.506c-3.087-5.107-2.364-14.693-6.194-15.213
    		c-3.829-0.517-12.978,2.619-17.326,6.12c-4.349,3.503-3.825,4.867-6.544,5.732c-2.721,0.863-27.294-0.048-35.18-5.393
    		c-7.887-5.347-23.4-23.575-35.538-28.23c-12.137-4.655-15.354-6.302-19.62-10.683c-4.267-4.38-7.581-4.689-11.56-5.597
    		c-3.979-0.906-10.142-0.629-11.427-2.268c-1.286-1.638-10.743-10.621-18.934-13.214"/>
    </symbol>
    <symbol id="C2C" viewBox="0 0 1200 800">
    	<path fill="none" stroke="#132756" stroke-width="1" stroke-miterlimit="10" d="M1020.722,199.479c0,0-19.176-7.312-22.943-1.263
    		c-8.734,14.03-28.942,14.752-31.99,18.792c-2.708,3.589-5.079,13.516-17.409,19.379c-6.057,2.882-17.929,6.87-23.94,8.389
    		c-6.009,1.521-42.595,14.272-47.518,17.56c-4.923,3.287-19.319,13.55-31.857,14.84c-12.539,1.29-72.955-2.561-78.037-0.236
    		c-5.082,2.321-63.204,9.893-70.92,10.586c-7.715,0.69-43.932,8.456-48.279,11.764s-8.839,8.191-17.173,7.281
    		c-8.335-0.912-9.737-2.071-14.693-3.207c-4.958-1.135-14.765-2.189-21.152-5.165c-14.737-6.861-44.029-32.784-50.739-33.259
    		c-6.71-0.474-63.479-0.649-134.123-7.054c-9.193-0.835-45.142-1.008-50.352-0.421c-5.212,0.585-13.422,4.337-23.562,3.02
    		c-10.142-1.317-17.751-8.891-24.389-11.429c-6.638-2.54-18.599-6.805-25.028-9.914c-6.428-3.11-8.985-7.042-14.337-7.808
    		c-5.354-0.764-26.089-1.492-36.216-3.192c-10.128-1.699-28.113-5.707-35.785-4.714c-7.671,0.992-43.31,3.288-50.37,11.882
    		c-7.061,8.594-13.377,22.217-13.377,22.217"/>
    </symbol>
    <symbol id="P2S" viewBox="0 0 1200 800">
    	<path fill="none" stroke="#132756" class="" stroke-width="1" stroke-miterlimit="10" d="M1023.742,186.198c0,0-23.545,2.146-34.043,6.643
    		c-10.498,4.5-12.772,8.353-18.301,7.064c-5.528-1.289-27.686-11.333-39.301-9.058c-11.614,2.275-18.209,3.95-19.477,7.181
    		c-1.267,3.231,4.091,14.953-0.6,17.096c-4.689,2.142-23.243-0.031-27.5,3.273c-4.256,3.304-13.827,11.82-16.567,14.406
    		c-2.74,2.585-14.695,2.562-16.78,7.103c-2.083,4.541-12.307,18.447-17.593,22.817c-5.285,4.371-18.232,10.131-25.776,9.284
    		c-7.545-0.849-14.314-9.898-20.048-10.869c-5.732-0.972-32.693,0.388-34.969-0.458c-2.277-0.848-7.916-4.506-11.413-3.476
    		c-3.496,1.032-11.086,9.222-14.503,7.95c-3.416-1.274-4.162-12.845-6.312-17.336c-2.15-4.491-9.072-15.5-12.529-15.621
    		c-3.455-0.12-16.176,0.975-25.024,1.046c-8.846,0.073-59.099-3.224-65.161-5.744c-6.061-2.52-48.17-29.759-67.741-30.828
    		c-19.57-1.069-43.52,2.32-50.98,6.671c-7.461,4.352-13.918,8.481-21.824,8.321c-7.906-0.157-33.31-4.104-39.768-6.251
    		c-6.457-2.148-26.393-14.768-29.903-13.352c-3.511,1.414-16.528,10.571-20.272,7.748c-3.745-2.823-6.598-9.085-10.663-13.834
    		c-4.064-4.753-17.733-15.302-18.439-19.739c-0.705-4.433,2.418-12.158,2.418-12.158s1.643-22.428-1.175-27.911
    		c-2.817-5.483-17.7-30.609-22.638-32.322c-4.936-1.711-17.703,0.533-22.653-0.794c-4.951-1.326-44.769-28.101-48.091-32.062
    		c-3.321-3.963-11.234-19.617-25.044-20.486c-13.811-0.87-23.409-1.206-26.947,0.976c-3.537,2.182-18.268,16.66-18.268,16.66"/>
    </symbol>
    <symbol id="ME2SB" viewBox="0 0 1200 800">
    	<path fill="none" stroke="#132756"  stroke-width="1" stroke-miterlimit="10" d="M155.562,354.34c-0.712-1.827,2.007-4.571,2.007-4.571
    		c2.092-0.784,4.29-1.031,6.537-1.014l0,0c6.759,0.12,42.921,10.391,42.921,10.391c8.105,0.137,25.015-3.224,25.015-3.224
    		c9.787-4.38,31.562-5.887,31.562-5.887c4.547,0.05,11.52,3.36,11.52,3.36c3.348,1.514,23.976,1.209,23.976,1.209
    		c0.178-0.075,0.818-3.675,0.818-3.675c0.153-2.059,0.088-4.421,0.382-6.673l0,0c0.271-1.424,4.961-5.685,4.961-5.685
    		c1.822,0.102,3.39,1.381,3.39,1.381c0.73,0.603,5.655,7.812,5.655,7.812c2.292,4.409,4.378,9.4,4.399,13.941l0,0
    		c-0.028,1.325-3.476,7.79-3.585,7.94l0,0c0,0.008-0.001,0.027,0.016,0.054l0,0c0.03,0.155,5.513,10.728,8.198,14.327l0,0
    		c2.59,3.606,5.953,6.905,6.505,6.979l0,0c0.061,0.02,0.668,0.077,0.668,0.077c0.993,0.052,18.745-1.856,18.745-1.856
    		c4.647,1.072,11.494,3.826,18.891,6.853l0,0c7.327,3.032,20.774,8.396,20.774,8.396c12.458,4.5,29.086,18.52,29.086,18.52
    		c6.052,4.88,14,8.312,20.915,8.366l0,0c1.662,0.005,4.79-0.525,4.79-0.525c3.827-0.938,6.559-2.925,10.366-6.791l0,0
    		c3.779-3.816,8.342-9.323,15.287-16.126l0,0c14.684-14.299,36.509-19.328,49.323-23.314l0,0c3.986-1.22,7.902-1.658,11.676-1.617
    		l0,0c9.908,0.14,18.884,3.194,27.187,3.62l0,0c0.527,0.028,1.045,0.046,1.598,0.056l0,0c11.01,0.153,25.329-5.012,36.751-8.351l0,0
    		c10.47-2.923,22.947-14.246,28.616-20.455l0,0c3.053-3.19,7.25-4.394,11.562-5.407l0,0c4.278-0.966,12.261-2.12,12.261-2.12
    		c2.29-0.388,4.777-1.292,4.777-1.292c0.05-0.043,0.092-0.059,0.133-0.086l0,0c2.391-3.303,7.307-16.667,7.307-16.667
    		c1.297-3.352,7.579-7.618,7.579-7.618c3.536-1.769,44.762-12.32,50.052-12.319l0,0c7.707,0.185,28.076-4.937,37.284-9.782l0,0
    		c4.175-2.136,7.81-6.227,11.499-10.787l0,0c3.694-4.525,7.397-9.505,12.559-12.901l0,0c5.007-3.245,10.912-5.142,16.362-6.622l0,0
    		c5.434-1.438,10.517-2.457,13.322-3.458l0,0c2.403-0.807,33.1-2.128,35.824-3.996l0,0c4.237-2.649,9.206-5.685,9.206-5.685
    		c2.269-1.61,7.872-7.081,7.872-7.081c3.724-3.929,9.998-7.981,9.998-7.981c3.315-1.524,10.361-1.786,10.361-1.786
    		c4.865,0.085,11.147,1.054,11.147,1.054c1.789-0.001,3.473-0.23,5.664-1.172l0,0c7.062-3.019,15.084-8.604,15.084-8.604
    		c4.5-2.919,19.584-8.819,19.584-8.819c9.394-2.826,17.54-6.428,17.54-6.428c3.121-1.751,4.809-3.49,8.109-7.024l0,0
    		c6.069-6.451,13.474-20.119,13.474-20.119c0.533-0.656,2.287-5.61,2.287-5.61c0.894-2.608,3.317-7.75,3.317-7.75
    		c0.99-1.496,2.813-3.374,5.65-3.368l0,0c0.536,0.01,1.477,0.182,1.477,0.182c4.004,1.072,8.315,2.996,8.315,2.996
    		c1.708-0.618,15.25-4.964,16.799-6.873l0,0c1.526-1.861,13.56-21.255,13.56-21.255"/>
    </symbol>
    <symbol id="NUS" viewBox="0 0 1200 800">
    	<path class="path" fill="none" stroke="#132756" stroke-width="1" stroke-miterlimit="10" d="M1021.8,162.566c0,0-8.705-0.799-13.231-3.264
    		c-4.528-2.467-11.094-12.688-21.142-11.12c-10.05,1.567-19.461,6.839-27.341,12.219c-7.879,5.381-26.562,16.071-38.966,16.885
    		c-12.406,0.814-30.88-5.834-29.553,0.673c1.326,6.506,4.037,12.368,2.376,15.77c-1.66,3.402-35.053,41.603-51.697,42.795
    		c-16.645,1.189-33.479-15.091-43.146-13.473c-9.667,1.615-37.405,23.128-45.875,20.689c-8.471-2.439-14.058-14.025-20.99-17.56
    		c-6.932-3.533-8.41-16.502-14.129-17.854c-5.72-1.354-59.476-23.461-64.078-35.617c-4.602-12.159,0.059-22.759,1.053-30.029
    		c0.994-7.271,8.677-21.171,12.728-23.856c4.049-2.688-38.615-14.729-56.845-16.907c-18.229-2.177-17.899-0.041-25.915-1.962
    		c-8.015-1.921-30.431-9.625-36.587-9.457c-6.156,0.169-14.822,6.017-22.063,4.225c-7.24-1.792-13.571-7.813-21.33-5.762
    		c-7.759,2.049-9.696,6.321-18.247,5.143c-8.551-1.18-32.604-2.262-48.55-8.028c-15.945-5.769-35.972-15.7-45.944-16.432
    		c-9.971-0.732-36.594,1.792-41.859-1.468s-10.982-15.765-16.012-14.789c-5.032,0.979-7.597,8.196-17.248,9.395
    		c-9.652,1.196-39.835-4.092-43.965-6.925c-4.133-2.835-10.76-13.124-17.95-15.048c-7.191-1.925-25.34,1.688-38.123-9.478
    		c-12.782-11.168-10.697-12.034-13.092-20.576"/>
    </symbol> -->
  </defs>
</svg>
